<svg xmlns="http://www.w3.org/2000/svg">
  <defs>
    <style>
        .icon {
            display: none;
        }
        .icon:target {
            display: inline;
        }
    </style>
  </defs>
  <svg viewBox="0 0 320 480">
    <g id="zero" class="icon">
      <path d="M0 192C0 103.6 71.6 32 160 32s160 71.6 160 160V320c0 88.4-71.6 160-160 160S0 408.4 0 320V192zM160 96c-53 0-96 43-96 96V320c0 53 43 96 96 96s96-43 96-96V192c0-53-43-96-96-96z" />
    </g>
  </svg>
  <svg viewBox="0 0 256 480">
    <g id="one" class="icon">
      <path d="M160 64c0-11.8-6.5-22.6-16.9-28.2s-23-5-32.8 1.6l-96 64C-.5 111.2-4.4 131 5.4 145.8s29.7 18.7 44.4 8.9L96 123.8V416H32c-17.7 0-32 14.3-32 32s14.3 32 32 32h96 96c17.7 0 32-14.3 32-32s-14.3-32-32-32H160V64z" />
    </g>
  </svg>
  <svg viewBox="0 0 320.07498 480">
    <g id="two" class="icon">
      <path d="M142.9 96c-21.5 0-42.2 8.5-57.4 23.8L54.6 150.6c-12.5 12.5-32.8 12.5-45.3 0s-12.5-32.8 0-45.3L40.2 74.5C67.5 47.3 104.4 32 142.9 32C223 32 288 97 288 177.1c0 38.5-15.3 75.4-42.5 102.6L109.3 416H288c17.7 0 32 14.3 32 32s-14.3 32-32 32H32c-12.9 0-24.6-7.8-29.6-19.8s-2.2-25.7 6.9-34.9L200.2 234.5c15.2-15.2 23.8-35.9 23.8-57.4c0-44.8-36.3-81.1-81.1-81.1z" />
    </g>
  </svg>
  <svg viewBox="0 0 320 480">
    <g id="three" class="icon">
      <path d="M0 64C0 46.3 14.3 32 32 32H272c13.2 0 25 8.1 29.8 20.4s1.5 26.3-8.2 35.2L162.3 208H184c75.1 0 136 60.9 136 136s-60.9 136-136 136H105.4C63 480 24.2 456 5.3 418.1l-1.9-3.8c-7.9-15.8-1.5-35 14.3-42.9s35-1.5 42.9 14.3l1.9 3.8c8.1 16.3 24.8 26.5 42.9 26.5H184c39.8 0 72-32.2 72-72s-32.2-72-72-72H80c-13.2 0-25-8.1-29.8-20.4s-1.5-26.3 8.2-35.2L189.7 96H32C14.3 96 0 81.7 0 64z" />
    </g>
  </svg>
  <svg viewBox="0 0 384.05057 480">
    <g id="four" class="icon">
      <path d="M189 77.6c7.5-16 .7-35.1-15.3-42.6s-35.1-.7-42.6 15.3L3 322.4c-4.7 9.9-3.9 21.5 1.9 30.8S21 368 32 368H256v80c0 17.7 14.3 32 32 32s32-14.3 32-32V368h32c17.7 0 32-14.3 32-32s-14.3-32-32-32H320V160c0-17.7-14.3-32-32-32s-32 14.3-32 32V304H82.4L189 77.6z" />
    </g>
  </svg>
  <svg viewBox="0 0 320.0208 480">
    <g id="five" class="icon">
      <path d="M32.5 58.3C35.3 43.1 48.5 32 64 32H256c17.7 0 32 14.3 32 32s-14.3 32-32 32H90.7L70.3 208H184c75.1 0 136 60.9 136 136s-60.9 136-136 136H100.5c-39.4 0-75.4-22.3-93-57.5l-4.1-8.2c-7.9-15.8-1.5-35 14.3-42.9s35-1.5 42.9 14.3l4.1 8.2c6.8 13.6 20.6 22.1 35.8 22.1H184c39.8 0 72-32.2 72-72s-32.2-72-72-72H32c-9.5 0-18.5-4.2-24.6-11.5s-8.6-16.9-6.9-26.2l32-176z" />
    </g>
  </svg>
  <svg viewBox="0 0 320 480">
    <g id="six" class="icon">
      <path d="M232.4 84.7c11.4-13.5 9.7-33.7-3.8-45.1s-33.7-9.7-45.1 3.8L38.6 214.7C14.7 242.9 1.1 278.4 .1 315.2c0 1.4-.1 2.9-.1 4.3c0 .2 0 .3 0 .5c0 88.4 71.6 160 160 160s160-71.6 160-160c0-85.5-67.1-155.4-151.5-159.8l63.9-75.6zM256 320A96 96 0 1 1 64 320a96 96 0 1 1 192 0z" />
    </g>
  </svg>
  <svg viewBox="0 0 319.9625 480.07166">
    <g id="seven" class="icon">
      <path d="M0 64C0 46.3 14.3 32 32 32H288c11.5 0 22 6.1 27.7 16.1s5.7 22.2-.1 32.1l-224 384c-8.9 15.3-28.5 20.4-43.8 11.5s-20.4-28.5-11.5-43.8L232.3 96H32C14.3 96 0 81.7 0 64z" />
    </g>
  </svg>
  <svg viewBox="0 0 320 480">
    <g id="eight" class="icon">
      <path d="M304 160c0-70.7-57.3-128-128-128H144C73.3 32 16 89.3 16 160c0 34.6 13.7 66 36 89C20.5 272.3 0 309.8 0 352c0 70.7 57.3 128 128 128h64c70.7 0 128-57.3 128-128c0-42.2-20.5-79.7-52-103c22.3-23 36-54.4 36-89zM176.1 288H192c35.3 0 64 28.7 64 64s-28.7 64-64 64H128c-35.3 0-64-28.7-64-64s28.7-64 64-64h15.9c0 0 .1 0 .1 0h32c0 0 .1 0 .1 0zm0-64c0 0 0 0 0 0H144c0 0 0 0 0 0c-35.3 0-64-28.7-64-64c0-35.3 28.7-64 64-64h32c35.3 0 64 28.7 64 64c0 35.3-28.6 64-64 64z" />
    </g>
  </svg>
  <svg viewBox="0 0 320 480.0502">
    <g id="nine" class="icon">
      <path d="M64 192a96 96 0 1 0 192 0A96 96 0 1 0 64 192zm87.5 159.8C67.1 347.4 0 277.5 0 192C0 103.6 71.6 32 160 32s160 71.6 160 160c0 2.6-.1 5.3-.2 7.9c-1.7 35.7-15.2 70-38.4 97.4l-145 171.4c-11.4 13.5-31.6 15.2-45.1 3.8s-15.2-31.6-3.8-45.1l63.9-75.6z" />
    </g>
  </svg>
  <svg viewBox="0 0 576 512">
    <g id="home" class="icon">
      <path d="M575.8 255.5c0 18-15 32.1-32 32.1h-32l.7 160.2c0 2.7-.2 5.4-.5 8.1V472c0 22.1-17.9 40-40 40H456c-1.1 0-2.2 0-3.3-.1c-1.4 .1-2.8 .1-4.2 .1H416 392c-22.1 0-40-17.9-40-40V448 384c0-17.7-14.3-32-32-32H256c-17.7 0-32 14.3-32 32v64 24c0 22.1-17.9 40-40 40H160 128.1c-1.5 0-3-.1-4.5-.2c-1.2 .1-2.4 .2-3.6 .2H104c-22.1 0-40-17.9-40-40V360c0-.9 0-1.9 .1-2.8V287.6H32c-18 0-32-14-32-32.1c0-9 3-17 10-24L266.4 8c7-7 15-8 22-8s15 2 21 7L564.8 231.5c8 7 12 15 11 24z"/>
    </g>
  </svg>
</svg>